<svg width="150" height="57" viewBox="0 0 150 57" fill="none" xmlns="http://www.w3.org/2000/svg">
<path d="M113.763 56.4504C119.092 56.4504 123.411 52.1309 123.411 46.8026C123.411 41.4743 119.092 37.1548 113.763 37.1548C108.435 37.1548 104.116 41.4743 104.116 46.8026C104.116 52.1309 108.435 56.4504 113.763 56.4504Z" fill="#006AAB"/>
<path d="M128.953 0.325829H148.053V19.2179C148.053 19.2179 130.208 19.8473 128.953 0.325829Z" fill="#FCB813"/>
<path d="M123.57 0.351712V33.908H119.424C110.157 33.908 102.646 26.3963 102.646 17.1299C102.646 7.86338 110.157 0.351712 119.424 0.351712H123.57Z" fill="#E87451"/>
<path d="M129.075 56.4763V22.92H133.222C142.488 22.92 150 30.4317 150 39.6982C150 48.9646 142.488 56.4763 133.222 56.4763H129.075Z" fill="#E87451"/>
<path d="M6.08263 24.0641C7.95592 25.1747 10.1217 25.7375 12.5207 25.7375C15.8341 25.7375 18.644 24.7009 20.8653 22.661L21.7834 21.5911L19.0216 19.2772L18.1479 20.2435C17.4297 20.8728 16.5893 21.3467 15.6564 21.6466C14.7123 21.9539 13.6535 22.1057 12.5133 22.1057C10.8251 22.1057 9.31091 21.7095 8.00405 20.9247C6.69719 20.1398 5.66799 19.0514 4.94607 17.689C4.22045 16.3229 3.85024 14.7421 3.85024 12.991C3.85024 11.2102 4.19824 9.6109 4.88314 8.24111C5.56433 6.87872 6.53429 5.79028 7.76341 5.00913C8.99252 4.22798 10.4401 3.83185 12.0653 3.83185C14.6198 3.83185 16.767 4.80181 18.4478 6.71212C18.7847 7.11565 19.1845 7.3637 19.6436 7.44514C20.1138 7.534 20.5469 7.43404 20.9283 7.15638C21.3947 6.82318 21.6835 6.41965 21.7872 5.95688C21.8945 5.4719 21.7538 5.01653 21.3799 4.6093C20.1952 3.15065 18.7958 2.0363 17.2261 1.30698C15.6564 0.577656 13.9201 0.20374 12.0653 0.20374C9.72184 0.20374 7.62273 0.766466 5.82348 1.88081C4.02424 2.99146 2.59151 4.52785 1.55861 6.44556C0.525705 8.35957 0 10.5624 0 12.991C0 15.39 0.547918 17.5779 1.62895 19.4919C2.71368 21.4171 4.21305 22.9534 6.08263 24.0641Z" fill="#006AAB"/>
<path d="M80.9957 25.7375C83.2169 25.7375 85.2309 25.2192 86.982 24.1974C88.1926 23.4903 89.2403 22.6017 90.1066 21.5392V25.6819H94.0939V12.8096H94.0902C94.0346 10.455 93.4571 8.31515 92.3761 6.44556C91.2654 4.53155 89.7401 2.99516 87.8372 1.88451C85.9343 0.773869 83.7538 0.211143 81.3548 0.211143C78.9558 0.211143 76.7678 0.773869 74.8501 1.88451C72.9324 2.99516 71.3997 4.53155 70.289 6.44556C69.1784 8.35957 68.6157 10.5661 68.6157 12.9947C68.6157 15.3937 69.1636 17.5816 70.2446 19.4956C71.3256 21.4134 72.8139 22.946 74.6687 24.0567C76.5235 25.1747 78.6522 25.7375 80.9957 25.7375ZM72.4659 12.9984C72.4659 11.251 72.862 9.67384 73.6469 8.30775C74.4317 6.94165 75.5091 5.84211 76.8455 5.04245C78.182 4.24279 79.6962 3.83925 81.3548 3.83925C83.0392 3.83925 84.5645 4.24279 85.8862 5.04245C87.2079 5.84211 88.2704 6.93795 89.0404 8.30404C89.8105 9.67014 90.2029 11.251 90.2029 12.9984C90.2029 14.7162 89.8105 16.2896 89.0404 17.6705C88.2704 19.0514 87.2116 20.1472 85.8899 20.9321C84.5682 21.7169 83.0429 22.1131 81.3585 22.1131C79.6999 22.1131 78.182 21.7169 76.8492 20.9321C75.5128 20.1472 74.4392 19.0514 73.6543 17.6705C72.862 16.2896 72.4659 14.7199 72.4659 12.9984Z" fill="#006AAB"/>
<path d="M31.0795 32.2014C29.6838 31.3425 28.0586 30.9057 26.2556 30.9057C24.3638 30.9057 22.646 31.3388 21.1467 32.1977C19.9472 32.8826 18.9439 33.8008 18.1516 34.941C17.426 33.8045 16.5005 32.8863 15.3861 32.2051C13.9904 31.3462 12.3652 30.9094 10.5622 30.9094C8.78889 30.9094 7.17105 31.3462 5.76053 32.2014C5.13487 32.5827 4.56474 33.0307 4.05384 33.5416V33.1677C4.05384 32.5975 3.87243 32.12 3.51703 31.7424C3.15792 31.3647 2.68404 31.1722 2.10651 31.1722C1.50306 31.1722 1.01067 31.3647 0.651564 31.7424C0.296157 32.1163 0.114752 32.5975 0.114752 33.1677V56.2321H1.83995C1.9251 56.2395 2.01395 56.2469 2.10651 56.2469C2.19536 56.2469 2.27681 56.2395 2.36196 56.2321H4.05384V40.9903C4.05384 39.117 4.63508 37.5769 5.78274 36.4145C6.93041 35.252 8.41497 34.6634 10.1994 34.6634C11.858 34.6634 13.2352 35.2631 14.294 36.4478C15.3565 37.6399 15.897 39.291 15.897 41.3457V54.2959C15.897 54.3958 15.9044 54.4958 15.9155 54.592V56.2321H17.6333C17.7148 56.2395 17.7999 56.2469 17.8888 56.2469C17.9776 56.2469 18.0591 56.2395 18.1442 56.2321H19.8583V50.4641H19.8398V41.4975H19.8435L19.8398 41.2532C19.8398 41.2384 19.8398 41.2273 19.8398 41.2125C19.8398 41.2013 19.8398 41.1902 19.8398 41.1828C19.825 39.2244 20.384 37.6325 21.5058 36.4552C22.6386 35.2668 24.1158 34.6634 25.8965 34.6634C27.5551 34.6634 28.9323 35.2631 29.9911 36.4478C31.0536 37.6436 31.5941 39.291 31.5941 41.3457V56.2284H33.3304C33.4119 56.2358 33.497 56.2432 33.5859 56.2432C33.6747 56.2432 33.7562 56.2358 33.8413 56.2284H35.5332V41.3457C35.5332 39.2503 35.1408 37.3992 34.3596 35.8443C33.5785 34.2894 32.4752 33.0603 31.0795 32.2014Z" fill="#006AAB"/>
<path d="M42.6932 31.1759C42.0897 31.1759 41.6011 31.3573 41.242 31.7164C40.8828 32.0755 40.7014 32.5642 40.7014 33.1677V56.2321H42.4266C42.5118 56.2395 42.6006 56.2469 42.6932 56.2469C42.782 56.2469 42.8635 56.2395 42.9486 56.2321H44.6405V33.1677C44.6405 32.5642 44.4591 32.0755 44.1 31.7164C43.7372 31.361 43.2633 31.1759 42.6932 31.1759Z" fill="#006AAB"/>
<path d="M93.4015 45.929C92.8277 44.9516 91.8577 44.089 90.5213 43.3671C89.1996 42.6526 87.3818 42.1084 85.1198 41.7456C83.4983 41.479 82.221 41.1532 81.3288 40.7719C80.4588 40.4017 79.8406 39.9759 79.4926 39.502C79.152 39.0393 78.978 38.4803 78.978 37.8472C78.978 36.9031 79.4296 36.1368 80.3589 35.5037C81.3029 34.8596 82.5876 34.5338 84.1795 34.5338C85.4308 34.5338 86.5489 34.7337 87.5077 35.1224C88.4555 35.5111 89.3033 36.1331 90.0289 36.9735C90.3954 37.3733 90.8434 37.6177 91.3579 37.6991C91.8763 37.7843 92.3464 37.7065 92.7611 37.4622C93.2386 37.1549 93.5163 36.7514 93.5866 36.259C93.657 35.774 93.52 35.3075 93.1794 34.867C92.2613 33.6749 91.0433 32.7123 89.5624 32.0089C88.0816 31.3055 86.3008 30.9501 84.2683 30.9501C82.6283 30.9501 81.103 31.2129 79.7332 31.7312C78.3486 32.2532 77.2268 33.0529 76.3939 34.1006C75.5535 35.1594 75.1277 36.4959 75.1277 38.073C75.1277 39.7871 75.8682 41.2865 77.3268 42.5267C78.7632 43.7484 81.0401 44.6147 84.098 45.0997C86.3897 45.481 88.0519 46.0215 89.0367 46.7027C89.9956 47.3654 90.462 48.1762 90.462 49.1758C90.4324 50.1902 89.9622 51.0342 89.0256 51.7599C88.0853 52.4892 86.5155 52.8557 84.3609 52.8557C82.9578 52.8557 81.662 52.6336 80.5107 52.1967C79.3704 51.7636 78.4411 51.1379 77.7488 50.3271L77.3416 49.8533L74.2096 52.156L74.6946 52.8039C75.7978 54.0293 77.2528 54.9585 79.0224 55.5694C80.7772 56.1765 82.5727 56.4801 84.3609 56.4801C86.2712 56.4801 87.989 56.1728 89.4661 55.562C90.9507 54.9511 92.1354 54.0848 92.9795 52.9927C93.8347 51.8894 94.2678 50.5937 94.2678 49.135C94.2641 47.9837 93.9754 46.9101 93.4015 45.929Z" fill="#006AAB"/>
<path d="M66.8164 31.9201C65.2467 31.1907 63.5104 30.8168 61.6556 30.8168C59.3121 30.8168 57.213 31.3796 55.4138 32.4939C53.6145 33.6045 52.1818 35.1409 51.1489 37.0587C50.116 38.9727 49.5903 41.1754 49.5903 43.604C49.5903 46.003 50.1382 48.191 51.2192 50.105C52.3003 52.0227 53.7959 53.5554 55.6655 54.6661C57.5388 55.7767 59.7046 56.3394 62.1036 56.3394C65.417 56.3394 68.2269 55.3028 70.4482 53.263L71.3663 52.193L68.6045 49.8792L67.7308 50.8455C67.0126 51.4748 66.1722 51.9487 65.2393 52.2486C64.2952 52.5559 63.2364 52.7076 62.0962 52.7076C60.408 52.7076 58.8938 52.3115 57.5869 51.5266C56.2801 50.7418 55.2509 49.6534 54.529 48.291C53.8033 46.9249 53.4331 45.3441 53.4331 43.5929C53.4331 41.8122 53.7811 40.2129 54.466 38.8431C55.1472 37.4807 56.1172 36.3923 57.3463 35.6111C58.5754 34.83 60.023 34.4338 61.6482 34.4338C64.2027 34.4338 66.3499 35.4038 68.0307 37.3141C68.3676 37.7176 68.7674 37.9657 69.2265 38.0471C69.6967 38.136 70.1298 38.036 70.5111 37.7584C70.9776 37.4252 71.2664 37.0216 71.37 36.5589C71.4774 36.0739 71.3367 35.6185 70.9628 35.2113C69.7855 33.7637 68.3861 32.6494 66.8164 31.9201Z" fill="#006AAB"/>
<path d="M56.3097 10.1218C56.3097 8.77422 56.6799 7.59694 57.4092 6.62327C58.1423 5.64591 59.1493 4.90918 60.4043 4.4316C61.6667 3.95402 63.4549 3.78373 65.0986 3.92811C65.6058 3.95773 66.0649 3.98734 66.4647 4.01696C66.9127 4.05028 67.3051 3.97994 67.6272 3.80964C67.9715 3.62824 68.2158 3.27653 68.3565 2.75453C68.5601 1.89933 68.2232 1.21813 67.3791 0.777579C66.598 0.370342 65.169 0.166723 63.7584 0.166723C61.9851 0.166723 60.3488 0.599877 58.8938 1.45878C57.909 2.04001 57.0464 2.77304 56.3097 3.65415V2.38431C56.3097 1.78086 56.1357 1.30329 55.7914 0.955283C55.4471 0.610983 54.9658 0.436982 54.3624 0.436982C53.7589 0.436982 53.2776 0.610983 52.9333 0.955283C52.589 1.29958 52.415 1.78086 52.415 2.38431V25.6819H56.3134L56.3097 10.1218Z" fill="#006AAB"/>
<path d="M41.764 24.7564C43.3152 24.1937 44.6146 23.4717 45.6253 22.6165C45.6253 22.6165 45.9363 22.3056 46.4768 21.791L43.5003 19.5734L42.9894 20.0547C42.3563 20.5989 41.5011 21.0616 40.4423 21.4245C39.3798 21.7873 38.3099 21.9724 37.2621 21.9724C35.5147 21.9724 33.9561 21.5762 32.6197 20.7914C31.2869 20.0065 30.2207 18.9218 29.4506 17.5557C28.8879 16.5561 28.5288 15.4344 28.3733 14.209H46.2621C46.81 14.209 48.1428 14.209 48.1428 14.209C48.1428 14.209 48.1428 12.9243 48.1428 12.3727C48.1428 10.0033 47.6652 7.85607 46.7174 5.9976C45.7697 4.13171 44.411 2.65085 42.6821 1.59204C40.9532 0.536927 38.8985 0.000114441 36.581 0.000114441C34.2301 0.000114441 32.1273 0.559137 30.3206 1.65868C28.5177 2.75821 27.0849 4.2835 26.0631 6.19381C25.0414 8.10042 24.5231 10.3291 24.5231 12.8244C24.5231 15.29 25.071 17.515 26.1557 19.4364C27.2404 21.3615 28.7583 22.8868 30.6649 23.9715C32.5715 25.0563 34.7891 25.6042 37.2547 25.6042C38.6986 25.6042 40.2128 25.3191 41.764 24.7564ZM29.3247 8.05969C30.0059 6.68249 30.9796 5.59036 32.2235 4.80921C33.4637 4.02805 34.9335 3.63563 36.5884 3.63563C38.2099 3.63563 39.6241 4.01695 40.7903 4.76478C41.9602 5.51632 42.8746 6.57143 43.5114 7.9005C43.9371 8.78902 44.2148 9.76268 44.3481 10.8141H28.4547C28.6176 9.81822 28.9101 8.89638 29.3247 8.05969Z" fill="#006AAB"/>
</svg>
