<svg xmlns="http://www.w3.org/2000/svg" fill="none" viewBox="0 0 150 57">
	<path fill="#006AAB" d="M113.76 56.45a9.65 9.65 0 1 0 0-19.3 9.65 9.65 0 0 0 0 19.3Z" />
	<path fill="#FCB813" d="M128.95.33h19.1v18.89s-17.84.63-19.1-18.9Z" />
	<path fill="#E87451" d="M123.57.35v33.56h-4.15a16.78 16.78 0 1 1 0-33.56h4.15Zm5.5 56.13V22.92h4.15a16.78 16.78 0 0 1 0 33.56h-4.15Z" />
	<path fill="#006AAB" d="M6.08 24.06a12.44 12.44 0 0 0 6.44 1.68c3.31 0 6.12-1.04 8.35-3.08l.91-1.07-2.76-2.31-.87.96a7.02 7.02 0 0 1-2.5 1.4c-.94.31-2 .47-3.14.47-1.68 0-3.2-.4-4.5-1.19a8.2 8.2 0 0 1-3.06-3.23 9.9 9.9 0 0 1-1.1-4.7c0-1.78.35-3.38 1.03-4.75a8 8 0 0 1 2.88-3.23 7.88 7.88 0 0 1 4.3-1.18c2.56 0 4.7.97 6.39 2.88a2 2 0 0 0 1.2.74c.46.08.9-.02 1.28-.3.46-.33.75-.73.86-1.2.1-.48-.04-.93-.41-1.34a11.73 11.73 0 0 0-4.15-3.3A12.16 12.16 0 0 0 12.07.2C9.72.2 7.62.76 5.82 1.87a11.92 11.92 0 0 0-4.26 4.57A13.63 13.63 0 0 0 0 12.99c0 2.4.55 4.59 1.63 6.5a12.22 12.22 0 0 0 4.45 4.57ZM81 25.74a11.45 11.45 0 0 0 9.11-4.2v4.14h3.98V12.81c-.06-2.36-.63-4.5-1.71-6.36A12.44 12.44 0 0 0 81.35.2a12.4 12.4 0 0 0-11.07 6.23A12.87 12.87 0 0 0 68.63 13a13 13 0 0 0 1.62 6.5A12.07 12.07 0 0 0 81 25.74ZM72.47 13a8.96 8.96 0 0 1 4.38-7.96 8.64 8.64 0 0 1 4.5-1.2 8.62 8.62 0 0 1 7.69 4.46A9.44 9.44 0 0 1 90.2 13c0 1.72-.39 3.29-1.16 4.67a8.6 8.6 0 0 1-3.15 3.26 8.74 8.74 0 0 1-4.53 1.18 8.72 8.72 0 0 1-7.7-4.44 9.25 9.25 0 0 1-1.2-4.67ZM31.08 32.2a9.06 9.06 0 0 0-4.82-1.3c-1.9 0-3.61.44-5.11 1.3-1.2.68-2.2 1.6-3 2.74a8.56 8.56 0 0 0-2.76-2.73 9.06 9.06 0 0 0-4.83-1.3 9.13 9.13 0 0 0-6.5 2.63v-.37a2 2 0 0 0-.54-1.43 1.87 1.87 0 0 0-1.41-.57c-.6 0-1.1.2-1.46.57a2 2 0 0 0-.54 1.43v23.06h1.73l.27.02.25-.02h1.7V41c0-1.87.58-3.41 1.72-4.58a5.96 5.96 0 0 1 4.42-1.75c1.66 0 3.04.6 4.1 1.79 1.06 1.19 1.6 2.84 1.6 4.9V54.3c0 .1 0 .2.02.3v1.63h1.71l.26.02.25-.02h1.72v-5.77h-.02v-9.28a6.52 6.52 0 0 1 1.67-4.72 5.82 5.82 0 0 1 4.39-1.8c1.66 0 3.03.6 4.1 1.79 1.05 1.2 1.6 2.84 1.6 4.9v14.88h1.73l.26.01.25-.01h1.7V41.35c0-2.1-.4-3.95-1.18-5.5a8.85 8.85 0 0 0-3.28-3.65Zm11.62-1.02c-.61 0-1.1.18-1.46.54-.36.36-.54.84-.54 1.45v23.06h1.73l.26.02.26-.02h1.7V33.17a2 2 0 0 0-.55-1.45 1.94 1.94 0 0 0-1.4-.54Zm50.7 14.75a7.19 7.19 0 0 0-2.88-2.56 17.38 17.38 0 0 0-5.4-1.62 17.7 17.7 0 0 1-3.8-.98 4.35 4.35 0 0 1-1.83-1.27 2.73 2.73 0 0 1-.51-1.65c0-.95.45-1.71 1.38-2.35a6.7 6.7 0 0 1 3.82-.97c1.25 0 2.37.2 3.33.6.95.38 1.8 1 2.52 1.84a2.24 2.24 0 0 0 2.73.49c.48-.3.76-.7.83-1.2a1.8 1.8 0 0 0-.41-1.4 9.8 9.8 0 0 0-3.62-2.85 12.29 12.29 0 0 0-5.3-1.06c-1.63 0-3.16.26-4.53.78a7.6 7.6 0 0 0-3.34 2.37 6.22 6.22 0 0 0-1.26 3.97 5.7 5.7 0 0 0 2.2 4.46c1.43 1.22 3.71 2.08 6.77 2.57 2.29.38 3.95.92 4.94 1.6.96.67 1.42 1.48 1.42 2.48a3.3 3.3 0 0 1-1.43 2.58c-.94.73-2.51 1.1-4.67 1.1-1.4 0-2.7-.23-3.85-.66a6.67 6.67 0 0 1-2.76-1.87l-.4-.48-3.14 2.3.48.65a10.18 10.18 0 0 0 4.33 2.77c1.76.6 3.55.91 5.34.91 1.91 0 3.63-.3 5.1-.92A8.37 8.37 0 0 0 92.99 53a6.14 6.14 0 0 0 1.29-3.86 6.3 6.3 0 0 0-.87-3.2ZM66.82 31.92a12.15 12.15 0 0 0-5.16-1.1c-2.35 0-4.45.56-6.25 1.67a11.92 11.92 0 0 0-4.26 4.57 13.62 13.62 0 0 0-1.56 6.54c0 2.4.55 4.6 1.63 6.5a12.2 12.2 0 0 0 4.45 4.57 12.44 12.44 0 0 0 6.43 1.67c3.32 0 6.13-1.04 8.35-3.08l.92-1.07-2.77-2.31-.87.97a7.02 7.02 0 0 1-2.5 1.4c-.93.3-2 .46-3.13.46-1.7 0-3.2-.4-4.51-1.18a8.2 8.2 0 0 1-3.06-3.24 9.9 9.9 0 0 1-1.1-4.7c0-1.78.35-3.38 1.04-4.75a8 8 0 0 1 2.88-3.23 7.88 7.88 0 0 1 4.3-1.18c2.55 0 4.7.97 6.38 2.88a2 2 0 0 0 1.2.74c.47.09.9-.01 1.28-.3.47-.32.76-.73.86-1.2.1-.48-.03-.93-.4-1.34a11.73 11.73 0 0 0-4.15-3.29Zm-10.51-21.8a5.7 5.7 0 0 1 1.1-3.5 6.58 6.58 0 0 1 3-2.19 11.2 11.2 0 0 1 4.69-.5l1.36.09c.45.03.85-.04 1.17-.21.34-.18.59-.53.73-1.06.2-.85-.14-1.53-.98-1.97a8.86 8.86 0 0 0-3.62-.61 9.43 9.43 0 0 0-7.45 3.48V2.38c0-.6-.17-1.08-.52-1.42a1.94 1.94 0 0 0-1.43-.52c-.6 0-1.08.17-1.43.52-.34.34-.52.82-.52 1.42v23.3h3.9V10.12ZM41.76 24.76a12.6 12.6 0 0 0 3.87-2.14s.3-.31.85-.83l-2.98-2.22-.51.48a7.56 7.56 0 0 1-2.55 1.37 9.84 9.84 0 0 1-3.18.55 8.6 8.6 0 0 1-7.81-4.42 9.1 9.1 0 0 1-1.08-3.34h19.77v-1.84c0-2.37-.47-4.51-1.42-6.37a10.82 10.82 0 0 0-4.04-4.4 11.54 11.54 0 0 0-6.1-1.6c-2.35 0-4.45.56-6.26 1.66a11.68 11.68 0 0 0-4.26 4.53 13.88 13.88 0 0 0-1.54 6.63c0 2.47.55 4.7 1.64 6.62a11.82 11.82 0 0 0 4.5 4.53 13.15 13.15 0 0 0 6.6 1.63c1.44 0 2.95-.28 4.5-.84ZM29.32 8.06a7.9 7.9 0 0 1 2.9-3.25 8.05 8.05 0 0 1 4.37-1.17c1.62 0 3.03.38 4.2 1.12a7.5 7.5 0 0 1 2.72 3.14c.43.89.7 1.86.84 2.91h-15.9c.17-1 .46-1.91.87-2.75Z" />
</svg>
