<svg width="33" height="31" viewBox="0 0 33 31" fill="none" xmlns="http://www.w3.org/2000/svg">
<g clip-path="url(#clip0_5_645)">
<path d="M16.5 31C25.6127 31 33 24.0604 33 15.5C33 6.93959 25.6127 0 16.5 0C7.3873 0 0 6.93959 0 15.5C0 24.0604 7.3873 31 16.5 31Z" fill="#006AAC"/>
<path d="M16.4521 26.562H14.7624C14.6354 26.562 14.5137 26.5146 14.4239 26.4303C14.3341 26.3459 14.2837 26.2316 14.2837 26.1123C14.2837 25.993 14.3341 25.8787 14.4239 25.7943C14.5137 25.71 14.6354 25.6626 14.7624 25.6626H16.4521C16.8494 25.6626 16.9308 25.5997 16.9308 25.5907C16.9308 25.5817 16.9978 25.4918 16.993 25.105C16.993 23.6571 16.993 22.1912 16.993 20.7658C16.993 19.7046 16.993 18.6433 16.993 17.5776C16.993 17.128 16.993 16.2287 18.2902 16.1882C18.5863 16.1926 18.8819 16.2121 19.1758 16.2466C19.5587 16.2871 20.2672 16.3635 20.3437 16.2017C20.5906 15.429 20.729 14.6293 20.7554 13.8229C20.7554 13.706 20.7554 13.6296 20.7793 13.6116C20.7823 13.5652 20.7823 13.5186 20.7793 13.4722H20.5639C20.1427 13.4722 19.7167 13.4722 19.2907 13.4722C18.8646 13.4722 18.5248 13.4722 18.1418 13.4722C17.9817 13.487 17.82 13.4707 17.6668 13.4243C17.5136 13.3779 17.3723 13.3024 17.2515 13.2024C17.155 13.1035 17.0814 12.9869 17.0353 12.86C16.9891 12.7331 16.9715 12.5986 16.9834 12.4649C16.9834 12.1951 16.9834 11.9253 16.9834 11.6555C16.9834 11.1699 16.9834 10.6663 17.0361 10.1716C17.1127 9.13742 17.8355 8.49888 19.013 8.41794C19.5635 8.38197 20.1188 8.38646 20.6357 8.41794C20.7234 8.42256 20.8113 8.42256 20.899 8.41794C20.9166 8.36243 20.9263 8.30497 20.9277 8.24706C20.9277 8.04921 20.9612 7.86034 20.9756 7.67598C21.0809 6.48436 21.0618 6.10666 20.7411 6.06169C19.6216 5.87063 18.4758 5.85846 17.352 6.02571C16.4684 6.13984 15.655 6.54009 15.052 7.15742C14.449 7.77476 14.0943 8.57046 14.0491 9.40721C13.9538 10.3397 13.9218 11.2769 13.9534 12.2131C13.9747 12.3732 13.9606 12.5357 13.912 12.6904C13.8634 12.8452 13.7813 12.9888 13.671 13.1125C13.518 13.23 13.3408 13.3167 13.1506 13.367C12.9603 13.4173 12.761 13.4301 12.5652 13.4047H12.1392C11.6437 13.3654 11.1447 13.3987 10.6601 13.5037C10.5778 14.1541 10.5458 14.8094 10.5644 15.4642C10.5644 16.2421 10.5644 16.2421 11.4308 16.2421H11.8807C12.1536 16.2421 12.3929 16.2421 12.6658 16.2421C12.8362 16.2199 13.0098 16.2321 13.1749 16.2778C13.34 16.3236 13.4928 16.4018 13.6231 16.5074C13.7455 16.6362 13.838 16.7874 13.8949 16.9515C13.9517 17.1156 13.9717 17.289 13.9534 17.4607C13.9534 18.4005 13.9534 19.3538 13.9534 20.2756V21.4133C13.9534 21.4133 13.9534 21.4493 13.9534 21.4673C13.9534 21.6966 13.9534 21.809 13.9534 21.8944C13.9534 21.9799 13.9534 22.0923 13.9534 22.47C13.9565 22.5291 13.9473 22.5881 13.9261 22.6438C13.905 22.6995 13.8724 22.7507 13.8301 22.7946C13.7879 22.8384 13.7369 22.874 13.68 22.8993C13.6232 22.9247 13.5615 22.9392 13.4987 22.9422C13.4358 22.9451 13.3729 22.9364 13.3137 22.9165C13.2544 22.8967 13.1998 22.866 13.1532 22.8264C13.1065 22.7867 13.0686 22.7388 13.0416 22.6853C13.0147 22.6319 12.9992 22.574 12.9961 22.515C12.9961 22.0878 12.9961 22.0159 12.9961 21.863C12.9961 21.7101 12.9961 21.6606 12.9961 21.4133C12.9934 21.3969 12.9934 21.3802 12.9961 21.3638V20.2801C12.9961 19.3493 12.9961 18.3915 12.9961 17.4472C13.0099 17.3498 12.9967 17.2507 12.9578 17.1595C12.8788 17.1439 12.7973 17.1439 12.7184 17.1595C12.4169 17.1595 12.1584 17.1595 11.8616 17.1595H11.426C10.0474 17.1595 9.60223 16.7503 9.60223 15.4822C9.60223 13.8454 9.65967 13.2968 9.85593 13.018C10.2341 12.4919 11.2106 12.5054 12.1536 12.5234H12.594C12.7368 12.531 12.8801 12.5204 13.02 12.4919C13.02 12.4919 13.02 12.411 13.02 12.2581C12.9876 11.2843 13.0211 10.3095 13.1205 9.33975C13.1878 8.31031 13.6297 7.33389 14.3722 6.57415C15.1147 5.81442 16.1127 5.31757 17.1988 5.16686C18.4281 4.97805 19.6826 4.98717 20.9086 5.19384C22.1675 5.37371 22.0574 6.5923 21.9521 7.77492C21.9521 7.95479 21.9186 8.13914 21.909 8.3325C21.8324 9.36673 21.057 9.35324 20.6405 9.34425C20.1287 9.31961 19.6158 9.31961 19.104 9.34425C18.1945 9.40271 18.0413 9.86586 18.0126 10.2436C17.9791 10.7157 17.9695 11.2014 17.9647 11.6735C17.9647 11.9478 17.9647 12.2221 17.9647 12.5009C17.9647 12.5324 17.9647 12.5549 17.9647 12.5729C18.0236 12.5793 18.083 12.5793 18.1418 12.5729C18.5296 12.5729 18.9221 12.5729 19.3146 12.5729C19.7071 12.5729 20.1475 12.5729 20.5592 12.5729C20.7375 12.5457 20.92 12.5566 21.0933 12.6049C21.2665 12.6532 21.4259 12.7375 21.5596 12.8516C21.6527 12.9823 21.7153 13.13 21.7433 13.285C21.7714 13.44 21.7642 13.5988 21.7223 13.751C21.7223 13.751 21.7223 13.8004 21.7223 13.8724C21.6873 14.7785 21.5264 15.6765 21.2437 16.5434C20.8847 17.3078 19.889 17.2044 19.0944 17.119C18.8457 17.083 18.5945 17.065 18.3429 17.065C17.9743 17.065 17.9743 17.065 17.9743 17.5507C17.9743 18.6164 17.9743 19.6821 17.9743 20.7478C17.9743 22.1642 17.9743 23.6302 17.9743 25.0691C18.0227 25.2667 18.0179 25.4724 17.9603 25.6678C17.9027 25.8632 17.7942 26.042 17.6444 26.188C17.4947 26.334 17.3086 26.4427 17.1029 26.504C16.8972 26.5654 16.6784 26.5776 16.4665 26.5395L16.4521 26.562Z" fill="white"/>
</g>
<defs>
<clipPath id="clip0_5_645">
<rect width="33" height="31" fill="white"/>
</clipPath>
</defs>
</svg>
