<svg width="33" height="31" viewBox="0 0 33 31" fill="none" xmlns="http://www.w3.org/2000/svg">
<g clip-path="url(#clip0_5_639)">
<path d="M16.5 31C25.6127 31 33 24.0604 33 15.5C33 6.93959 25.6127 0 16.5 0C7.3873 0 0 6.93959 0 15.5C0 24.0604 7.3873 31 16.5 31Z" fill="#006AAC"/>
<path d="M16.5335 24.7899C15.0975 24.7899 13.6615 24.7405 12.1871 24.6415C9.17146 24.4437 7.20409 22.5596 7.05091 19.7267C7.04457 19.6074 7.08891 19.4907 7.17419 19.4021C7.25947 19.3136 7.37871 19.2605 7.50566 19.2545C7.63262 19.2486 7.75689 19.2902 7.85114 19.3703C7.9454 19.4504 8.00192 19.5624 8.00827 19.6817C8.00815 20.745 8.4535 21.7656 9.24801 22.5229C10.0425 23.2802 11.1224 23.7133 12.2541 23.7287C15.0509 23.9153 17.8582 23.9153 20.6549 23.7287C23.2637 23.5488 24.8769 22.0155 24.963 19.6277C25.0492 17.24 25.054 14.7039 24.963 11.9834C24.9853 10.9469 24.5752 9.9433 23.8203 9.18708C23.0653 8.43085 22.0255 7.98201 20.923 7.93643C17.9482 7.65762 14.9513 7.65762 11.9765 7.93643C9.62141 8.15676 8.14708 9.62718 8.00827 11.862C7.95561 12.7299 7.96998 13.3909 7.98434 14.1508C7.98434 14.515 7.98434 14.8928 7.98434 15.3244C7.98434 15.4437 7.93392 15.5581 7.84415 15.6424C7.75438 15.7267 7.63262 15.7741 7.50566 15.7741C7.37871 15.7741 7.25696 15.7267 7.16719 15.6424C7.07743 15.5581 7.02699 15.4437 7.02699 15.3244C7.02699 14.8972 7.02699 14.524 7.02699 14.1643C7.02699 13.4179 6.99826 12.7164 7.05091 11.817C7.20888 9.11904 9.05658 7.32038 11.8808 7.04158C14.9193 6.75827 17.9802 6.75827 21.0187 7.04158C22.3578 7.11115 23.6163 7.66512 24.5301 8.58728C25.444 9.50945 25.9422 10.7282 25.9204 11.9879C26.0065 14.7444 26.0065 17.267 25.9204 19.7042C25.8151 22.5551 23.8238 24.4572 20.7219 24.6505C19.3465 24.7435 17.9504 24.7899 16.5335 24.7899Z" fill="white"/>
<path d="M16.4713 20.6441C15.9109 20.6423 15.3547 20.5542 14.8246 20.3833C13.5851 19.9341 12.5796 19.0505 12.02 17.9185C11.4605 16.7866 11.3906 15.4948 11.825 14.3154C12.2594 13.1359 13.1643 12.161 14.3489 11.596C15.5335 11.031 16.9054 10.9201 18.1754 11.2866C18.2349 11.3062 18.2897 11.3367 18.3366 11.3763C18.3835 11.4159 18.4216 11.4639 18.4487 11.5173C18.4759 11.5708 18.4915 11.6288 18.4947 11.688C18.4979 11.7472 18.4886 11.8064 18.4674 11.8622C18.4251 11.974 18.3374 12.0656 18.2235 12.117C18.1097 12.1683 17.9788 12.1754 17.8594 12.1365C17.3476 11.9673 16.805 11.8957 16.2634 11.9258C15.7218 11.956 15.192 12.0872 14.705 12.3118C14.2096 12.5361 13.7664 12.8502 13.4008 13.2361C13.0352 13.622 12.7545 14.072 12.5748 14.5602C12.2999 15.2835 12.2602 16.0673 12.4608 16.8119C12.6614 17.5565 13.0932 18.2283 13.7013 18.7417C14.3094 19.2551 15.0664 19.587 15.8758 19.6952C16.6853 19.8034 17.5108 19.6829 18.2472 19.3491C18.7455 19.1193 19.1901 18.7986 19.555 18.4056C19.9199 18.0126 20.1978 17.5553 20.3725 17.0603C20.6563 16.2838 20.6681 15.4423 20.406 14.6591C20.3686 14.5446 20.3811 14.4208 20.4407 14.315C20.5004 14.2092 20.6024 14.1299 20.7243 14.0948C20.8462 14.0596 20.978 14.0713 21.0906 14.1274C21.2033 14.1835 21.2876 14.2793 21.3251 14.3938C21.6835 15.4939 21.613 16.6779 21.1262 17.7336C20.6393 18.7892 19.7679 19.6474 18.6684 20.154C17.985 20.4715 17.2337 20.6391 16.4713 20.6441Z" fill="white"/>
<path d="M21.3203 12.2803C20.6884 12.2129 20.272 11.8981 20.272 11.3001C20.2593 11.162 20.2797 11.0231 20.3317 10.8934C20.3838 10.7638 20.4661 10.6468 20.5727 10.551C20.6792 10.4552 20.8073 10.3831 20.9475 10.34C21.0876 10.2968 21.2363 10.2838 21.3825 10.3018C21.5214 10.2974 21.6597 10.3215 21.7877 10.3724C21.9157 10.4233 22.0304 10.4997 22.1238 10.5964C22.2171 10.6931 22.287 10.8078 22.3284 10.9324C22.3699 11.057 22.3819 11.1886 22.3638 11.318C22.3686 11.4472 22.3448 11.5758 22.2938 11.6959C22.2429 11.8159 22.1658 11.9246 22.0677 12.0151C21.9695 12.1056 21.8524 12.176 21.7237 12.2216C21.595 12.2673 21.4576 12.2873 21.3203 12.2803Z" fill="white"/>
</g>
<defs>
<clipPath id="clip0_5_639">
<rect width="33" height="31" fill="white"/>
</clipPath>
</defs>
</svg>
