<?xml version="1.0" encoding="utf-8"?>
<!-- Generator: Adobe Illustrator 26.0.1, SVG Export Plug-In . SVG Version: 6.00 Build 0)  -->
<svg version="1.1" id="Layer_1" xmlns="http://www.w3.org/2000/svg" xmlns:xlink="http://www.w3.org/1999/xlink" x="0px" y="0px"
	 viewBox="0 85 420 170" style="enable-background:new 0 0 425.2 425.2;" xml:space="preserve">
<style type="text/css">
	.st0{fill:#006AAB;}
	.st1{fill:#FCB813;}
	.st2{fill:#E87451;}
</style>
<g>
	<circle class="st0" cx="314.8" cy="221.78" r="26.06"/>
	<path class="st1" d="M355.83,96.24h51.59v51.03C407.42,147.27,359.22,148.97,355.83,96.24z"/>
	<g>
		<g>
			<path class="st0" d="M23.94,160.36c5.06,3,10.91,4.52,17.39,4.52c8.95,0,16.54-2.8,22.54-8.31l2.48-2.89l-7.46-6.25l-2.36,2.61
				c-1.94,1.7-4.21,2.98-6.73,3.79c-2.55,0.83-5.41,1.24-8.49,1.24c-4.56,0-8.65-1.07-12.18-3.19c-3.53-2.12-6.31-5.06-8.26-8.74
				c-1.96-3.69-2.96-7.96-2.96-12.69c0-4.81,0.94-9.13,2.79-12.83c1.84-3.68,4.46-6.62,7.78-8.73c3.32-2.11,7.23-3.18,11.62-3.18
				c6.9,0,12.7,2.62,17.24,7.78c0.91,1.09,1.99,1.76,3.23,1.98c1.27,0.24,2.44-0.03,3.47-0.78c1.26-0.9,2.04-1.99,2.32-3.24
				c0.29-1.31-0.09-2.54-1.1-3.64c-3.2-3.94-6.98-6.95-11.22-8.92c-4.24-1.97-8.93-2.98-13.94-2.98c-6.33,0-12,1.52-16.86,4.53
				c-4.86,3-8.73,7.15-11.52,12.33c-2.79,5.17-4.21,11.12-4.21,17.68c0,6.48,1.48,12.39,4.4,17.56
				C14.84,153.21,18.89,157.36,23.94,160.36z"/>
			<path class="st0" d="M226.29,164.88c6,0,11.44-1.4,16.17-4.16c3.27-1.91,6.1-4.31,8.44-7.18v5.47v5.72h10.77v-5.72v-9.86v-19.19
				l-0.01,0c-0.15-6.36-1.71-12.14-4.63-17.19c-3-5.17-7.12-9.32-12.26-12.32c-5.14-3-11.03-4.52-17.51-4.52s-12.39,1.52-17.57,4.52
				c-5.18,3-9.32,7.15-12.32,12.32c-3,5.17-4.52,11.13-4.52,17.69c0,6.48,1.48,12.39,4.4,17.56c2.92,5.18,6.94,9.32,11.95,12.32
				C214.21,163.36,219.96,164.88,226.29,164.88z M203.25,130.47c0-4.72,1.07-8.98,3.19-12.67c2.12-3.69,5.03-6.66,8.64-8.82
				c3.61-2.16,7.7-3.25,12.18-3.25c4.55,0,8.67,1.09,12.24,3.25c3.57,2.16,6.44,5.12,8.52,8.81c2.08,3.69,3.14,7.96,3.14,12.68
				c0,4.64-1.06,8.89-3.14,12.62c-2.08,3.73-4.94,6.69-8.51,8.81c-3.57,2.12-7.69,3.19-12.24,3.19c-4.48,0-8.58-1.07-12.18-3.19
				c-3.61-2.12-6.51-5.08-8.63-8.81C204.32,139.36,203.25,135.12,203.25,130.47z"/>
			<path class="st0" d="M91.46,182.34c-3.77-2.32-8.16-3.5-13.03-3.5c-5.11,0-9.75,1.17-13.8,3.49c-3.24,1.85-5.95,4.33-8.09,7.41
				c-1.96-3.07-4.46-5.55-7.47-7.39c-3.77-2.32-8.16-3.5-13.03-3.5c-4.79,0-9.16,1.18-12.97,3.49c-1.69,1.03-3.23,2.24-4.61,3.62
				v-1.01c0-1.54-0.49-2.83-1.45-3.85c-0.97-1.02-2.25-1.54-3.81-1.54c-1.63,0-2.96,0.52-3.93,1.54c-0.96,1.01-1.45,2.31-1.45,3.85
				v46.73v10.35v5.22h4.66c0.23,0.02,0.47,0.04,0.72,0.04c0.24,0,0.46-0.02,0.69-0.04h4.57v-5.22v-10.35v-25.6
				c0-5.06,1.57-9.22,4.67-12.36c3.1-3.14,7.11-4.73,11.93-4.73c4.48,0,8.2,1.62,11.06,4.82c2.87,3.22,4.33,7.68,4.33,13.23v34.98
				c0,0.27,0.02,0.54,0.05,0.8v4.43h4.64c0.22,0.02,0.45,0.04,0.69,0.04s0.46-0.02,0.69-0.04h4.63v-15.58H61.1v-24.22h0.01
				l-0.01-0.66c0-0.04,0-0.07,0-0.11c0-0.03,0-0.06,0-0.08c-0.04-5.29,1.47-9.59,4.5-12.77c3.06-3.21,7.05-4.84,11.86-4.84
				c4.48,0,8.2,1.62,11.06,4.82c2.87,3.23,4.33,7.68,4.33,13.23v24.63v10.35v5.22h4.69c0.22,0.02,0.45,0.04,0.69,0.04
				c0.24,0,0.46-0.02,0.69-0.04h4.57v-5.22v-10.35v-24.63c0-5.66-1.06-10.66-3.17-14.86C98.21,187.98,95.23,184.66,91.46,182.34z"/>
			<path class="st0" d="M122.83,179.57c-1.63,0-2.95,0.49-3.92,1.46c-0.97,0.97-1.46,2.29-1.46,3.92v46.73v10.23v5.34h4.66
				c0.23,0.02,0.47,0.04,0.72,0.04c0.24,0,0.46-0.02,0.69-0.04h4.57v-5.34v-10.23v-46.73c0-1.63-0.49-2.95-1.46-3.92
				C125.65,180.07,124.37,179.57,122.83,179.57z"/>
			<path class="st0" d="M259.8,219.42c-1.55-2.64-4.17-4.97-7.78-6.92c-3.57-1.93-8.48-3.4-14.59-4.38
				c-4.38-0.72-7.83-1.6-10.24-2.63c-2.35-1-4.02-2.15-4.96-3.43c-0.92-1.25-1.39-2.76-1.39-4.47c0-2.55,1.22-4.62,3.73-6.33
				c2.55-1.74,6.02-2.62,10.32-2.62c3.38,0,6.4,0.54,8.99,1.59c2.56,1.05,4.85,2.73,6.81,5c0.99,1.08,2.2,1.74,3.59,1.96
				c1.4,0.23,2.67,0.02,3.79-0.64c1.29-0.83,2.04-1.92,2.23-3.25c0.19-1.31-0.18-2.57-1.1-3.76c-2.48-3.22-5.77-5.82-9.77-7.72
				c-4-1.9-8.81-2.86-14.3-2.86c-4.43,0-8.55,0.71-12.25,2.11c-3.74,1.41-6.77,3.57-9.02,6.4c-2.27,2.86-3.42,6.47-3.42,10.73
				c0,4.63,2,8.68,5.94,12.03c3.88,3.3,10.03,5.64,18.29,6.95c6.19,1.03,10.68,2.49,13.34,4.33c2.59,1.79,3.85,3.98,3.85,6.68
				c-0.08,2.74-1.35,5.02-3.88,6.98c-2.54,1.97-6.78,2.96-12.6,2.96c-3.79,0-7.29-0.6-10.4-1.78c-3.08-1.17-5.59-2.86-7.46-5.05
				l-1.1-1.28l-8.46,6.22l1.31,1.75c2.98,3.31,6.91,5.82,11.69,7.47c4.74,1.64,9.59,2.46,14.42,2.46c5.16,0,9.8-0.83,13.79-2.48
				c4.01-1.65,7.21-3.99,9.49-6.94c2.31-2.98,3.48-6.48,3.48-10.42C262.13,224.97,261.35,222.07,259.8,219.42z"/>
			<path class="st0" d="M187.99,181.58c-4.24-1.97-8.93-2.98-13.94-2.98c-6.33,0-12,1.52-16.86,4.53c-4.86,3-8.73,7.15-11.52,12.33
				c-2.79,5.17-4.21,11.12-4.21,17.68c0,6.48,1.48,12.39,4.4,17.56c2.92,5.18,6.96,9.32,12.01,12.32c5.06,3,10.91,4.52,17.39,4.52
				c8.95,0,16.54-2.8,22.54-8.31l2.48-2.89l-7.46-6.25l-2.36,2.61c-1.94,1.7-4.21,2.98-6.73,3.79c-2.55,0.83-5.41,1.24-8.49,1.24
				c-4.56,0-8.65-1.07-12.18-3.19c-3.53-2.12-6.31-5.06-8.26-8.74c-1.96-3.69-2.96-7.96-2.96-12.69c0-4.81,0.94-9.13,2.79-12.83
				c1.84-3.68,4.46-6.62,7.78-8.73c3.32-2.11,7.23-3.18,11.62-3.18c6.9,0,12.7,2.62,17.24,7.78c0.91,1.09,1.99,1.76,3.23,1.98
				c1.27,0.24,2.44-0.03,3.47-0.78c1.26-0.9,2.04-1.99,2.32-3.24c0.29-1.31-0.09-2.54-1.1-3.64
				C196.01,186.56,192.23,183.55,187.99,181.58z"/>
			<path class="st0" d="M159.62,149.16L159.62,149.16l-0.01-26.46c0-3.64,1-6.82,2.97-9.45c1.98-2.64,4.7-4.63,8.09-5.92
				c3.41-1.29,8.24-1.75,12.68-1.36c1.37,0.08,2.61,0.16,3.69,0.24c1.21,0.09,2.27-0.1,3.14-0.56c0.93-0.49,1.59-1.44,1.97-2.85
				c0.55-2.31-0.36-4.15-2.64-5.34c-2.11-1.1-5.97-1.65-9.78-1.65c-4.79,0-9.21,1.17-13.14,3.49c-2.66,1.57-4.99,3.55-6.98,5.93
				v-3.43c0-1.63-0.47-2.92-1.4-3.86c-0.93-0.93-2.23-1.4-3.86-1.4c-1.63,0-2.93,0.47-3.86,1.4c-0.93,0.93-1.4,2.23-1.4,3.86v47.35
				v9.86v5.72h10.53V149.16z"/>
		</g>
		<path class="st0" d="M120.32,162.23c4.19-1.52,7.7-3.47,10.43-5.78c0,0,0.84-0.84,2.3-2.23l-8.04-5.99l-1.38,1.3
			c-1.71,1.47-4.02,2.72-6.88,3.7c-2.87,0.98-5.76,1.48-8.59,1.48c-4.72,0-8.93-1.07-12.54-3.19c-3.6-2.12-6.48-5.05-8.56-8.74
			c-1.52-2.7-2.49-5.73-2.91-9.04h48.32c1.48,0,5.08,0,5.08,0s0-3.47,0-4.96c0-6.4-1.29-12.2-3.85-17.22
			c-2.56-5.04-6.23-9.04-10.9-11.9c-4.67-2.85-10.22-4.3-16.48-4.3c-6.35,0-12.03,1.51-16.91,4.48c-4.87,2.97-8.74,7.09-11.5,12.25
			c-2.76,5.15-4.16,11.17-4.16,17.91c0,6.66,1.48,12.67,4.41,17.86c2.93,5.2,7.03,9.32,12.18,12.25c5.15,2.93,11.14,4.41,17.8,4.41
			C112.04,164.52,116.13,163.75,120.32,162.23z M86.72,117.13c1.84-3.72,4.47-6.67,7.83-8.78c3.35-2.11,7.32-3.17,11.79-3.17
			c4.38,0,8.2,1.03,11.35,3.05c3.16,2.03,5.63,4.88,7.35,8.47c1.15,2.4,1.9,5.03,2.26,7.87H84.37
			C84.81,121.88,85.6,119.39,86.72,117.13z"/>
	</g>
	<path class="st2" d="M341.29,96.31v90.64h-11.2c-25.03,0-45.32-20.29-45.32-45.32s20.29-45.32,45.32-45.32H341.29z"/>
	<path class="st2" d="M356.16,247.91v-90.64h11.2c25.03,0,45.32,20.29,45.32,45.32s-20.29,45.32-45.32,45.32H356.16z"/>
</g>
</svg>
