<svg width="33" height="31" viewBox="0 0 40 40" fill="none" xmlns="http://www.w3.org/2000/svg">
<g clip-path="url(#clip0_221_845)">
<path d="M20 40C31.0457 40 40 31.0457 40 20C40 8.95431 31.0457 0 20 0C8.95431 0 0 8.95431 0 20C0 31.0457 8.95431 40 20 40Z" fill="#006AAC"/>
<path d="M29.7302 11.8711H11.4303C10.6296 11.8711 9.97974 12.5209 9.97974 13.3216V27.8444C9.97974 28.6451 10.6296 29.2949 11.4303 29.2949H27.3514C27.6705 29.2949 27.9316 29.0338 27.9316 28.7147C27.9316 28.3956 27.6705 28.1345 27.3514 28.1345H11.4303C11.2678 28.1345 11.1402 28.0011 11.1402 27.8444V13.3216C11.1402 13.1592 11.2736 13.0315 11.4303 13.0315H29.0282L20.7079 21.4504L14.0993 15.0623C13.8672 14.8418 13.5016 14.8476 13.2812 15.0739C13.0607 15.306 13.0665 15.6715 13.2928 15.892L20.3134 22.6805C20.4236 22.7907 20.5745 22.843 20.7195 22.843C20.8646 22.843 21.0212 22.7849 21.1315 22.6689L30.0204 13.6756V25.0304C30.0204 25.3495 30.2814 25.6106 30.6006 25.6106C30.9197 25.6106 31.1808 25.3495 31.1808 25.0304V13.3216C31.1808 12.5209 30.5309 11.8711 29.7302 11.8711Z" fill="white"/>
</g>
<defs>
<clipPath id="clip0_221_845">
<rect width="40" height="40" fill="white"/>
</clipPath>
</defs>
</svg>
