<svg width="316" height="375" viewBox="0 0 316 375" fill="none" xmlns="http://www.w3.org/2000/svg">
<g clip-path="url(#clip0_221_805)">
<path d="M74.1745 374.824C109.725 374.824 138.544 345.981 138.544 310.402C138.544 274.823 109.725 245.981 74.1745 245.981C38.6242 245.981 9.80493 274.823 9.80493 310.402C9.80493 345.981 38.6242 374.824 74.1745 374.824Z" fill="#006AAC"/>
<path d="M175.565 0H303.029V126.159C303.029 126.159 183.963 130.339 175.565 0Z" fill="#FDB913"/>
<path d="M139.643 0.175781V224.287H111.987C50.1238 224.287 0 174.123 0 112.209C0 50.2961 50.1238 0.175781 111.987 0.175781H139.643Z" fill="#E97451"/>
<path d="M176.357 375V150.889H204.013C265.876 150.889 316 201.053 316 262.966C316 324.88 265.876 375.044 204.013 375.044H176.357V375Z" fill="#E97451"/>
</g>
<defs>
<clipPath id="clip0_221_805">
<rect width="316" height="375" fill="white"/>
</clipPath>
</defs>
</svg>
