<svg width="33" height="31" viewBox="0 0 40 40" fill="none" xmlns="http://www.w3.org/2000/svg">
<g clip-path="url(#clip0_221_828)">
<path d="M20 40C31.0457 40 40 31.0457 40 20C40 8.95431 31.0457 0 20 0C8.95431 0 0 8.95431 0 20C0 31.0457 8.95431 40 20 40Z" fill="#006AAC"/>
<path d="M25.2626 32.1325C20.3598 32.1325 15.9328 30.3629 12.7068 27.0905C9.29511 23.6324 7.59508 18.863 7.9142 13.6527C8.09407 10.7052 10.6122 8.11743 13.5307 7.88534C13.8672 7.85633 14.5345 7.89695 14.5403 7.90275C15.3003 7.98398 15.8689 8.57 15.9444 9.31847L16.6464 16.4609C16.6812 16.8787 16.4608 17.2616 16.0952 17.4589C16.0488 17.4821 16.0024 17.4995 15.956 17.5111C15.956 17.5111 15.5556 17.6097 14.7723 17.9173C14.4764 18.0333 14.1399 17.8882 14.0181 17.5923C13.902 17.2964 14.0471 16.9599 14.343 16.8381C14.8768 16.6292 15.2539 16.5073 15.4686 16.4435L14.7781 9.44032C14.7549 9.22564 14.6273 9.08639 14.4242 9.06898C14.3314 9.06898 13.815 9.03997 13.6119 9.05738C11.2504 9.24885 9.20808 11.3492 9.06303 13.7397C8.76712 18.6135 10.3511 23.0696 13.5249 26.2898C16.7277 29.539 21.2243 31.1984 26.1794 30.9663C28.5931 30.8503 30.7341 28.8485 30.9603 26.5044C30.9777 26.313 30.9603 25.8198 30.9545 25.6747C30.9371 25.5065 30.7921 25.373 30.5774 25.344L23.522 24.5665C23.4524 24.7812 23.3131 25.1583 23.081 25.6805C22.9534 25.9706 22.611 26.1099 22.3151 25.9764C22.0192 25.8488 21.8858 25.5065 22.0192 25.2106C22.3441 24.4679 22.4718 24.0443 22.4718 24.0443C22.4834 23.9979 22.5008 23.9573 22.524 23.9167C22.7271 23.5628 23.1158 23.3655 23.5104 23.3945L30.705 24.1894C31.4709 24.2764 32.0337 24.8334 32.1092 25.5819C32.1092 25.6167 32.144 26.2782 32.1092 26.6089C31.8365 29.51 29.1965 31.9817 26.2316 32.1209C25.9067 32.1383 25.5759 32.1441 25.2568 32.1441L25.2626 32.1325Z" fill="white"/>
<path d="M20.0058 26.1273C19.9188 26.1273 19.8375 26.1099 19.7563 26.0693C18.4624 25.4426 17.302 24.6245 16.3156 23.6207C15.3467 22.646 14.546 21.5088 13.9368 20.2497C13.7975 19.9596 13.9193 19.6115 14.2095 19.478C14.4996 19.3388 14.8419 19.4606 14.9811 19.7507C15.5323 20.8937 16.2576 21.9207 17.1337 22.8084C18.0273 23.7136 19.0775 24.4621 20.2553 25.0249C20.5454 25.1641 20.6672 25.5122 20.528 25.7966C20.4294 26.0054 20.2205 26.1273 20.0058 26.1273Z" fill="white"/>
</g>
<defs>
<clipPath id="clip0_221_828">
<rect width="40" height="40" fill="white"/>
</clipPath>
</defs>
</svg>
